<svg width="362" height="33" viewBox="0 0 362 33" fill="none" xmlns="http://www.w3.org/2000/svg">
<path opacity="0.7" fill-rule="evenodd" clip-rule="evenodd" d="M336.442 0L333.04 6.16689L337.997 14.7527L347.512 14.9379L352.109 6.60504L348.296 0H336.442ZM335.3 0L331.892 6.17806L337.413 15.7415L348.096 15.9494L353.257 6.59386L349.45 0H362V6.75237L354.427 6.75237L348.906 16.3159L354.427 25.8793H362V33H349.767L353.528 26.4858L348.006 16.9223H336.963L331.442 26.4858L335.203 33H0V0H335.3ZM348.612 33H336.358L332.597 26.4858L337.541 17.9223H347.429L352.373 26.4858L348.612 33ZM362 7.75237V24.8793H355.004L350.06 16.3159L355.004 7.75237L362 7.75237Z" fill="#E84A4A"/>
</svg>
