<svg width="151" height="23" viewBox="0 0 151 23" fill="none" xmlns="http://www.w3.org/2000/svg">
<path opacity="0.7" fill-rule="evenodd" clip-rule="evenodd" d="M120.645 0L120.001 1.1675L124.958 9.75332L134.473 9.9385L139.07 1.60565L138.143 0H120.645ZM119.503 0L118.853 1.17867L124.374 10.7422L135.057 10.9501L140.218 1.59447L139.298 0H151V1.75065L141.388 1.75065L135.867 11.3141L141.388 20.8776L151 20.8776V23H139.563L140.489 21.3968L134.967 11.8333L123.925 11.8333L118.403 21.3968L119.329 23H0V0H119.503ZM138.409 23H120.483L119.558 21.3968L124.502 12.8333L134.39 12.8333L139.334 21.3968L138.409 23ZM151 2.75065V19.8776L141.966 19.8776L137.021 11.3141L141.966 2.75065L151 2.75065Z" fill="#242425"/>
</svg>
