<svg width="194" height="23" viewBox="0 0 194 23" fill="none" xmlns="http://www.w3.org/2000/svg">
<path opacity="0.7" fill-rule="evenodd" clip-rule="evenodd" d="M163.645 0L163.001 1.1675L167.958 9.75332L177.473 9.9385L182.07 1.60565L181.143 0H163.645ZM162.503 0L161.853 1.17867L167.374 10.7422L178.057 10.9501L183.218 1.59447L182.298 0H194V1.75065L184.388 1.75065L178.867 11.3141L184.388 20.8776L194 20.8776V23H182.563L183.489 21.3968L177.967 11.8333L166.925 11.8333L161.403 21.3968L162.329 23H0V0H162.503ZM181.409 23H163.483L162.558 21.3968L167.502 12.8333L177.39 12.8333L182.334 21.3968L181.409 23ZM194 2.75065V19.8776L184.966 19.8776L180.021 11.3141L184.966 2.75065L194 2.75065Z" fill="#E84A4A"/>
</svg>
